<?xml version="1.0" encoding="utf-8" ?>
<!-- Generator: Assembly 1.0 - http://assemblyapp.co -->
<svg version="1.1" xmlns="http://www.w3.org/2000/svg" xmlns:xlink="http://www.w3.org/1999/xlink" width="300" height="300" viewBox="0 0 300 300">
	<rect x="0" y="0" width="300" height="300" fill="#ffffff" />
	<g id="widget" transform="matrix(1,0,0,1,150,150)">
		<path d="M-91.5939,-29.138 L-117.287,-27.4609 C-113.85,-44.2829 -106.306,-60.4159 -94.5689,-74.1478 C-80.3505,-90.7831 -62.0919,-101.422 -42.7039,-105.884 L-41.6482,-79.7949 L-41.6482,-79.7949 C-54.6211,-75.9774 -66.7268,-68.3934 -76.3506,-57.1337 C-83.5019,-48.7668 -88.57,-39.2041 -91.5939,-29.138 Z" fill="#ffe452" fill-opacity="1" stroke-width="10.7749" stroke="#ffe453" stroke-linecap="square" stroke-linejoin="miter" />
		<path d="M-268.305,22.1669 C-268.15,50.2373 -278.851,78.3078 -300.253,99.7096 C-343.056,142.513 -412.38,142.358 -455.183,99.5545 C-497.987,56.7509 -498.142,-12.5722 -455.338,-55.3757 C-419.203,-91.5106 -364.303,-97.0936 -322.275,-72.1249 L-342.436,-51.9638 C-372.988,-66.6969 -410.674,-61.2689 -435.953,-35.99 C-468.055,-3.88739 -468.055,48.2213 -435.953,80.3239 C-403.85,112.427 -351.741,112.427 -319.639,80.3239 C-303.51,64.195 -295.911,43.2586 -295.911,22.1669 L-358.565,22.167 L-290.638,-45.7604 L-222.71,22.167 L-268.305,22.1669 Z" fill="#000000" fill-opacity="1" />
		<path d="M84.7081,-45.1202 L56.1663,-45.6291 C53.022,-51.3761 49.0634,-56.8132 44.2582,-61.7929 C23.6236,-83.1767 -6.4234,-90.0404 -33.0921,-82.1557 L-37.8944,-107.336 L-37.8944,-107.336 C-2.98595,-116.796 35.8378,-107.495 62.7343,-79.6216 C72.6118,-69.3855 79.9378,-57.6219 84.7081,-45.1202 Z" fill="#ff9702" fill-opacity="1" stroke-width="10.7749" stroke="#ff9702" stroke-linecap="square" stroke-linejoin="miter" />
		<path d="M-54.8551,63.0457 C-59.4454,60.7061 -63.8677,57.8286 -68.04,54.4053 C-91.9557,34.7829 -100.8,2.8092 -92.7362,-25.5569 L-118.091,-22.6402 C-123.746,8.97602 -114.333,42.567 -91.1394,66.3728 L-54.8551,63.0457 Z" fill="#4bbe37" fill-opacity="1" stroke-width="10.7749" stroke="#4bbe37" stroke-linecap="square" stroke-linejoin="miter" />
		<path d="M-40.2045,70.4126 C-17.8514,79.1624 7.62077,77.4821 28.6243,65.7878 L49.3507,83.2587 C10.5449,109.429 -42.6551,107.928 -79.8031,76.6144 C-81.0297,75.5804 -82.2256,74.5249 -83.3907,73.449 L-40.2045,70.4126 Z" fill="#1eacff" fill-opacity="1" stroke-width="10.7749" stroke="#1eacff" stroke-linecap="square" stroke-linejoin="miter" />
		<path d="M87.2125,-37.5914 C89.4264,-27.1432 90.5058,-16.4226 90.4456,-5.70317 L135.006,-5.65947 L68.5423,73.4247 L2.23384,-5.78982 L63.4667,-5.72965 C63.4771,-16.2667 62.1221,-26.7719 59.3298,-36.818 L87.2125,-37.5914 Z" fill="#fe1219" fill-opacity="1" stroke-width="10.7749" stroke="#fe1219" stroke-linecap="square" stroke-linejoin="miter" />
	</g>
</svg>