<svg xmlns="http://www.w3.org/2000/svg"><path d="M58.4061 120.862l-25.6931 1.6771c3.437-16.822 10.981-32.955 22.7181-46.6869 14.2184-16.6353 32.477-27.2742 51.865-31.7362l1.0557 26.0891c-12.9729 3.8175-25.0786 11.4015-34.7024 22.6612-7.1513 8.3669-12.2194 17.9296-15.2433 27.9957z" fill="#ffe452" stroke-width="11" stroke="#ffe453"/><path d="M-118.305 172.1669c.155 28.0704-10.546 56.1409-31.948 77.5427-42.803 42.8034-112.127 42.6484-154.93-.1551-42.804-42.8036-42.959-112.1267-.155-154.9302 36.135-36.1349 91.035-41.7179 133.063-16.7492l-20.161 20.1611c-30.552-14.7331-68.238-9.3051-93.517 15.9738-32.102 32.1026-32.102 84.2113 0 116.3139 32.103 32.1031 84.212 32.1031 116.314 0 16.129-16.1289 23.728-37.0653 23.728-58.157l-62.654.0001 67.927-67.9274 67.928 67.9274-45.595-.0001z"/><path d="M234.7081 104.8798l-28.5418-.5089c-3.1443-5.747-7.1029-11.1841-11.9081-16.1638-20.6346-21.3838-50.6816-28.2475-77.3503-20.3628l-4.8023-25.1803c34.90845-9.46 73.7322-.159 100.6287 27.7144 9.8775 10.2361 17.2035 21.9997 21.9738 34.5014z" fill="#ff9702" stroke-width="11" stroke="#ff9702"/><path d="M95.1449 213.0457c-4.5903-2.3396-9.0126-5.2171-13.1849-8.6404-23.9157-19.6224-32.76-51.5961-24.6962-79.9622l-25.3548 2.9167c-5.655 31.61622 3.758 65.2072 26.9516 89.013l36.2843-3.3271z" fill="#4bbe37" stroke-width="11" stroke="#4bbe37"/><path d="M109.7955 220.4126c22.3531 8.7498 47.82527 7.0695 68.8288-4.6248l20.7264 17.4709c-38.8058 26.1703-92.0058 24.6693-129.1538-6.6443-1.2266-1.034-2.4225-2.0895-3.5876-3.1654l43.1862-3.0364z" fill="#1eacff" stroke-width="11" stroke="#1eacff"/><path d="M237.2125 112.4086c2.2139 10.4482 3.2933 21.1688 3.2331 31.88823l44.5604.0437-66.4637 79.08417-66.30846-79.21452 61.23286.06017c.0104-10.53705-1.3446-21.04225-4.1369-31.08835l27.8827-.7734z" fill="#fe1219" stroke-width="11" stroke="#fe1219"/></svg>