<svg xmlns="http://www.w3.org/2000/svg" width="300" height="240"><path d="M49.83 131.42q-3.1 1.42-6.76 2.47-3.66 1.04-7.08 1.04-4.42 0-8.1-1.2-3.68-1.23-6.26-3.66-2.6-2.46-4.03-6.15-1.4-3.7-1.4-8.63 0-9.05 5.27-14.28 5.3-5.24 14.52-5.24 3.2 0 6.56.77 3.36.78 7.24 2.63v5.95h-.46q-.78-.6-2.28-1.6-1.5-.98-2.94-1.64-1.75-.8-3.96-1.32-2.22-.5-5.04-.5-6.33 0-10.02 4.05-3.7 4.07-3.7 11.02 0 7.32 3.87 11.4 3.85 4.06 10.5 4.06 2.42 0 4.84-.47 2.43-.5 4.26-1.25v-9.25H34.74v-4.4h15.1z" fill="#1eacff"/><path d="M77.88 120q0 6.93-3.55 10.94-3.54 4-9.5 4-6 0-9.54-4-3.55-4-3.55-10.93 0-6.9 3.54-10.92 3.52-4.02 9.53-4.02 5.96 0 9.5 4.02 3.55 4 3.55 10.93zm-4.9 0q0-5.5-2.17-8.16-2.14-2.68-5.97-2.68-3.88 0-6.02 2.68-2.13 2.67-2.13 8.17 0 5.34 2.15 8.1 2.16 2.74 6 2.74 3.8 0 5.98-2.73 2.17-2.7 2.17-8.1z" fill="#4bbe37"/><path d="M106.14 120q0 6.93-3.55 10.94-3.55 4-9.5 4-6.02 0-9.55-4Q80 126.94 80 120q0-6.9 3.55-10.92 3.53-4.02 9.54-4.02 5.95 0 9.5 4.02 3.54 4 3.54 10.93zm-4.9 0q0-5.5-2.17-8.16-2.15-2.68-5.98-2.68-3.9 0-6.03 2.68-2.14 2.67-2.14 8.17 0 5.34 2.15 8.1 2.16 2.74 6 2.74 3.8 0 5.98-2.73 2.17-2.7 2.17-8.1z" fill="#fe1219"/><path d="M133.7 130.94q0 7.2-3.26 10.57-3.27 3.38-10.07 3.38-2.25 0-4.4-.32-2.14-.32-4.2-.9v-4.87h.24q1.18.45 3.7 1.12 2.54.67 5.08.67 2.43 0 4.03-.6 1.6-.57 2.5-1.6.88-1 1.26-2.4t.38-3.1v-2.6q-2.15 1.73-4.12 2.58-1.96.85-5 .85-5.07 0-8.05-3.67-2.98-3.66-2.98-10.33 0-3.65 1.02-6.3 1.02-2.64 2.8-4.57 1.64-1.8 4-2.8 2.36-1 4.7-1 2.45 0 4.1.5 1.67.5 3.52 1.5l.3-1.22h4.47zm-4.76-4.57v-15.43q-1.9-.86-3.54-1.23-1.63-.36-3.25-.36-3.93 0-6.2 2.64-2.24 2.63-2.24 7.65 0 4.77 1.68 7.23 1.67 2.45 5.55 2.45 2.08 0 4.17-.78 2.1-.8 3.84-2.15z" fill="#ff9702"/><path d="M163.07 120q0 6.93-3.55 10.94-3.55 4-9.5 4-6 0-9.55-4-3.54-4-3.54-10.93 0-6.9 3.54-10.92t9.54-4.02q5.97 0 9.52 4.02 3.55 4 3.55 10.93zm-4.92 0q0-5.5-2.16-8.16-2.16-2.68-6-2.68-3.87 0-6 2.68-2.15 2.67-2.15 8.17 0 5.34 2.16 8.1 2.16 2.74 6 2.74 3.8 0 5.98-2.73 2.17-2.7 2.17-8.1z" fill="#1eacff"/><path d="M170.42 134.94h-4.76V95.5h4.76z" fill="#4bbe37"/><path d="M220.56 134.1h-5.02v-32.53l-10.5 22.13h-2.98l-10.42-22.13v32.52h-4.7V96.34h6.85l10.06 21 9.73-21h6.96zM254.45 119.95q0 6.92-3.55 10.92t-9.5 4q-6 0-9.55-4-3.53-4-3.53-10.92t3.53-10.94q3.54-4 9.54-4 5.95 0 9.5 4 3.55 4.03 3.55 10.95zm-4.92 0q0-5.5-2.15-8.17-2.16-2.68-6-2.68-3.86 0-6 2.68-2.15 2.67-2.15 8.17 0 5.32 2.16 8.07 2.14 2.75 6 2.75 3.8 0 5.96-2.72 2.17-2.73 2.17-8.1zM284.8 134.1H280v-2.97q-2.05 1.77-4.28 2.76-2.23.98-4.84.98-5.07 0-8.05-3.9-2.98-3.9-2.98-10.83 0-3.6 1.03-6.4 1.03-2.82 2.77-4.8 1.73-1.93 4.02-2.94 2.3-1 4.74-1 2.23 0 3.96.46 1.72.47 3.62 1.46V94.65h4.77zM280 127.1v-16.24q-1.92-.87-3.44-1.2-1.52-.33-3.32-.33-4 0-6.24 2.8-2.23 2.78-2.23 7.9 0 5.04 1.7 7.67 1.74 2.62 5.54 2.62 2.03 0 4.1-.9 2.08-.9 3.88-2.32z" fill="#bbb"/></svg>